<?xml version="1.0" standalone="no"?>
<!DOCTYPE svg PUBLIC "-//W3C//DTD SVG 20010904//EN"
 "http://www.w3.org/TR/2001/REC-SVG-20010904/DTD/svg10.dtd">
<svg version="1.0" xmlns="http://www.w3.org/2000/svg"
 width="150.000000pt" height="152.000000pt" viewBox="0 0 150.000000 152.000000"
 preserveAspectRatio="xMidYMid meet">

<g transform="translate(0.000000,152.000000) scale(0.100000,-0.100000)"
fill="#000000" stroke="none">
<path d="M630 1509 c-147 -21 -304 -105 -416 -221 -116 -120 -179 -248 -204
-413 -26 -168 20 -377 111 -507 25 -35 24 -40 -14 -59 -94 -46 -113 -179 -36
-257 79 -80 214 -58 263 44 l19 40 66 -33 c200 -99 465 -99 663 2 67 34 67 34
74 12 13 -42 48 -80 92 -99 154 -68 299 115 197 248 -16 21 -41 42 -57 48 -33
12 -34 19 -9 54 60 86 105 221 116 349 28 316 -169 628 -470 748 -122 48 -261
64 -395 44z m274 -64 c38 -8 107 -33 154 -56 69 -33 102 -58 172 -128 141
-139 198 -265 207 -456 5 -91 2 -125 -15 -193 -33 -128 -114 -275 -159 -287
-32 -8 -88 -59 -102 -93 -15 -35 -114 -90 -221 -123 -106 -33 -274 -33 -380 0
-107 33 -206 88 -221 123 -14 34 -70 85 -102 93 -12 4 -37 27 -54 53 -147 217
-164 488 -46 715 51 99 191 239 290 290 140 73 317 96 477 62z m-643 -1204
c23 -23 29 -38 29 -71 0 -52 -13 -76 -50 -95 -49 -25 -88 -19 -126 19 -38 38
-44 77 -19 126 20 38 41 49 93 50 35 0 49 -6 73 -29z m1130 0 c43 -43 41 -101
-5 -147 -70 -70 -175 -26 -176 74 0 35 6 49 29 73 42 42 110 42 152 0z"/>
<path d="M300 1117 c-14 -7 -27 -19 -29 -27 -28 -113 -36 -136 -48 -143 -15
-9 -18 -44 -4 -49 5 -2 3 -32 -4 -71 -12 -62 -11 -68 4 -65 11 2 23 27 36 76
l20 73 49 14 c55 17 66 11 66 -36 0 -46 12 -119 20 -119 8 0 26 173 21 200 -1
8 -6 35 -10 59 -8 43 -31 71 -58 71 -7 0 -13 7 -13 15 0 18 -16 18 -50 2z m53
-59 c9 -7 19 -32 23 -55 l7 -43 -47 0 c-52 0 -55 6 -30 70 18 44 22 46 47 28z"/>
<path d="M716 1098 c-3 -7 -10 -49 -16 -92 -25 -166 -72 -232 -139 -196 -28
15 -33 65 -15 168 16 96 12 121 -19 109 -18 -7 -37 -103 -37 -192 0 -57 4 -78
20 -98 29 -37 53 -41 103 -19 39 17 45 18 53 4 7 -11 18 -13 39 -8 16 4 24 10
18 14 -8 5 -5 39 8 117 24 138 25 205 4 205 -9 0 -17 -6 -19 -12z"/>
<path d="M814 1092 c-6 -4 -17 -18 -24 -31 l-12 -24 51 6 c59 7 56 14 36 -98
-20 -109 -20 -185 0 -185 8 0 15 2 15 4 0 17 43 222 51 243 7 18 6 30 -3 41
-12 14 -8 15 35 9 42 -6 47 -4 47 12 0 10 -7 22 -16 25 -22 8 -167 7 -180 -2z"/>
<path d="M1045 1038 c-45 -98 -53 -204 -18 -239 44 -44 151 -34 215 19 68 58
91 183 43 240 -30 35 -65 44 -137 33 -31 -5 -54 -5 -56 0 -8 20 -19 6 -47 -53z
m180 2 c23 -25 31 -107 15 -154 -25 -76 -121 -114 -166 -65 -35 39 -18 204 24
229 31 18 107 12 127 -10z"/>
<path d="M825 678 c-3 -13 -13 -79 -24 -146 -21 -140 -21 -139 53 -128 84 13
148 79 148 152 0 46 -18 64 -71 71 -41 6 -41 6 -35 39 6 33 6 34 -30 34 -29 0
-37 -4 -41 -22z m105 -138 c0 -22 -37 -70 -54 -70 -10 0 -11 10 -5 43 4 23 8
45 9 48 0 3 11 4 25 1 15 -2 25 -11 25 -22z"/>
<path d="M344 676 c-36 -16 -46 -40 -49 -116 -1 -30 -5 -69 -9 -85 -8 -38 8
-61 51 -70 28 -6 34 -3 47 24 20 38 20 41 -4 41 -22 0 -23 6 -14 63 5 26 12
37 24 37 10 0 20 10 23 22 7 26 1 38 -18 38 -11 0 -13 8 -8 30 6 33 2 35 -43
16z"/>
<path d="M449 601 c-25 -25 -29 -37 -29 -84 0 -137 128 -160 189 -34 12 24 21
60 21 80 0 48 -28 67 -98 67 -46 0 -58 -4 -83 -29z m104 -65 c-1 -15 -10 -40
-19 -54 -16 -24 -17 -25 -30 -7 -30 40 -10 99 31 93 15 -2 20 -10 18 -32z"/>
<path d="M657 530 c-22 -132 -23 -130 12 -130 37 0 40 5 52 82 9 56 22 80 50
90 4 2 10 15 14 29 6 25 5 25 -53 27 l-59 2 -16 -100z"/>
<path d="M1070 612 c-68 -33 -72 -138 -7 -186 19 -14 43 -20 79 -21 l52 0 17
100 c10 55 18 106 18 113 1 19 -117 16 -159 -6z m74 -86 c-8 -51 -18 -63 -39
-46 -20 16 -19 67 1 78 34 19 44 11 38 -32z"/>
</g>
</svg>
